<?xml version="1.0" encoding="UTF-8" standalone="no"?>
<!-- Created with Inkscape (http://www.inkscape.org/) -->

<svg
   width="1080"
   height="1080"
   viewBox="0 0 1080 1080"
   version="1.1"
   id="svg1"
   inkscape:version="1.4.2 (ebf0e940, 2025-05-08)"
   sodipodi:docname="icon12.svg"
   inkscape:export-filename="icon12.png"
   inkscape:export-xdpi="96"
   inkscape:export-ydpi="96"
   xmlns:inkscape="http://www.inkscape.org/namespaces/inkscape"
   xmlns:sodipodi="http://sodipodi.sourceforge.net/DTD/sodipodi-0.dtd"
   xmlns="http://www.w3.org/2000/svg"
   xmlns:svg="http://www.w3.org/2000/svg">
  <sodipodi:namedview
     id="namedview1"
     pagecolor="#ffffff"
     bordercolor="#111111"
     borderopacity="1"
     inkscape:showpageshadow="false"
     inkscape:pageopacity="0"
     inkscape:pagecheckerboard="1"
     inkscape:deskcolor="#d1d1d1"
     inkscape:document-units="px"
     showguides="true"
     inkscape:zoom="0.30459476"
     inkscape:cx="375.90929"
     inkscape:cy="691.08214"
     inkscape:window-width="1472"
     inkscape:window-height="832"
     inkscape:window-x="0"
     inkscape:window-y="34"
     inkscape:window-maximized="0"
     inkscape:current-layer="svg1"
     inkscape:export-bgcolor="#ffffffff" />
  <defs
     id="defs1">
    <linearGradient
       id="swatch4"
       inkscape:swatch="solid">
      <stop
         style="stop-color:#000000;stop-opacity:0;"
         offset="0"
         id="stop4" />
    </linearGradient>
  </defs>
  <g
     inkscape:label="Katman 1"
     inkscape:groupmode="layer"
     id="layer1"
     transform="matrix(1.4086939,0,0,1.3488984,-192.05023,-165.78967)">
    <rect
       style="opacity:1;fill:#ffffff;fill-opacity:1;fill-rule:nonzero;stroke:none;stroke-width:1.014;stroke-dasharray:none"
       id="rect4"
       width="1079.493"
       height="1079.493"
       x="0"
       y="0"
       transform="matrix(0.70987743,0,0,0.74134568,136.33212,122.90746)" />
    <path
       d="m 683.08819,769.46641 c -5.50815,-0.85024 -9.98636,-2.80745 -11.07847,-4.84185 -0.4906,-0.91389 -0.89198,-3.67307 -0.89198,-6.13146 0,-5.28958 -1.86209,-8.20549 -6.1385,-9.61253 -1.54575,-0.50861 -3.30457,-1.51338 -3.90846,-2.23286 -0.60387,-0.71947 -3.01069,-7.45971 -5.34846,-14.97831 -2.33775,-7.51862 -7.09889,-21.81825 -10.58029,-31.77698 -7.3452,-21.01141 -13.09248,-39.35096 -23.47103,-74.89634 -7.35587,-25.19304 -16.9068,-54.52843 -18.16573,-55.79561 -0.35635,-0.3587 -1.0567,-0.16111 -1.55632,0.43906 -1.91985,2.30624 -9.27391,19.68944 -8.72593,20.62596 0.31735,0.54234 3.2514,5.06011 6.52015,10.03949 6.40979,9.76428 9.45835,15.29483 9.45835,17.15905 0,0.64646 -2.39049,2.66966 -5.31215,4.49596 -5.24456,3.27832 -5.33481,3.39728 -7.09367,9.35111 -0.97983,3.31678 -3.44598,11.40084 -5.48032,17.96454 -5.15519,16.63297 -12.13787,41.42447 -14.8361,52.67436 -3.10884,12.96193 -3.28188,26.87467 -0.42263,33.98227 3.57185,8.87908 8.09517,14.50042 15.7775,19.60736 7.42314,4.93466 9.46003,7.09896 8.65335,9.19469 -0.83835,2.17805 -5.28584,3.2446 -15.30102,3.66935 -14.08748,0.59745 -17.48168,-0.55556 -23.39829,-7.94837 -5.02295,-6.27618 -8.67372,-9.50414 -9.64661,-8.52942 -0.35183,0.35246 -0.9383,3.97416 -1.30327,8.0482 l -0.66359,7.40733 -2.54698,0.24779 c -1.40083,0.13628 -2.91836,-0.23408 -3.3723,-0.82303 -0.45391,-0.58896 -1.25654,-4.43408 -1.78359,-8.54475 -0.52705,-4.11065 -1.73125,-9.66615 -2.67598,-12.34555 -2.41418,-6.84691 -1.82567,-12.69536 1.95866,-19.46515 1.58625,-2.83765 3.48802,-7.19639 4.22614,-9.68606 1.53184,-5.16694 2.77448,-21.40598 1.63644,-21.38566 -0.40954,0.007 -3.53083,5.44615 -6.93622,12.08633 -7.30189,14.23796 -24.06874,43.95921 -26.94396,47.76134 l -2.01145,2.65994 -4.30356,-1.717 c -6.70271,-2.67416 -7.2341,-2.54548 -8.82194,2.13631 -1.65668,4.88487 -2.3651,5.17482 -12.92346,5.28978 -5.76622,0.0629 -7.77651,-0.20778 -8.56297,-1.15252 -1.59164,-1.91199 -3.79726,-1.5043 -11.15284,2.06145 -5.8844,2.85255 -8.00719,3.4177 -15.77884,4.20068 -10.94788,1.10298 -23.55995,0.68514 -25.40533,-0.84171 -1.9843,-1.64184 -1.59894,-4.8332 0.85771,-7.10302 1.19979,-1.10851 5.19338,-3.6577 8.87467,-5.6648 16.64349,-9.07443 24.88536,-17.38562 35.97096,-36.27353 2.39111,-4.07403 6.80494,-10.92582 9.80849,-15.22618 4.49226,-6.43183 6.90302,-11.32288 13.58991,-27.57173 4.47091,-10.86408 8.3157,-20.34885 8.54399,-21.07726 0.35864,-1.14433 -0.91267,-1.40474 -9.35101,-1.91536 -11.01791,-0.66671 -20.92149,-2.20102 -29.9063,-4.63325 l -6.10588,-1.65287 -2.03752,1.88229 c -3.33707,3.08287 -17.49394,20.14748 -25.67588,30.94961 -17.13521,22.62257 -28.34929,41.70675 -35.9353,61.15495 -6.11589,15.67927 -6.06728,15.34613 -2.97099,20.36296 2.6067,4.22352 2.62744,4.3348 1.11731,5.99908 -1.39243,1.53462 -2.28577,1.66584 -9.40163,1.38121 -8.54649,-0.34188 -12.00348,-1.65698 -15.04292,-5.72262 -1.45635,-1.94806 -1.53553,-2.75294 -0.80971,-8.23035 0.44245,-3.33914 0.63258,-6.36692 0.42249,-6.7284 -0.59607,-1.0255 -2.59793,0.99208 -6.13145,6.17957 -1.78537,2.62109 -3.7484,4.76564 -4.36226,4.76564 -0.61384,0 -1.99043,-0.70586 -3.0591,-1.56857 l -1.94298,-1.56856 3.43601,-6.45604 c 1.88981,-3.55084 4.4502,-9.60419 5.68976,-13.45186 2.83403,-8.79712 3.48474,-9.76514 10.08269,-14.99928 9.25428,-7.34144 13.31453,-15.39259 21.66073,-42.95154 6.3068,-20.82482 10.31209,-28.39527 21.75367,-41.11693 l 5.82449,-6.47613 -2.10664,-1.75423 c -1.15863,-0.96485 -3.18806,-2.54388 -4.50982,-3.50897 -2.39672,-1.74997 -2.39932,-1.76145 -0.95852,-4.24218 0.7946,-1.3681 1.44472,-2.70806 1.44472,-2.97775 0,-0.26965 -29.52694,-0.49028 -65.61548,-0.49028 H 282.3153 l -0.46416,-1.85184 c -0.25529,-1.0185 -0.35523,-5.37029 -0.22211,-9.67067 l 0.24204,-7.81886 5.77883,-0.56856 c 3.17837,-0.31271 9.63276,-0.93262 14.34306,-1.37755 14.18078,-1.33954 21.68084,-6.07436 25.81787,-16.29898 l 1.94211,-4.79994 0.18538,-124.69003 c 0.12632,-84.98225 -0.0965,-126.84124 -0.69949,-131.44521 -1.21922,-9.30813 -3.743,-13.19555 -10.76307,-16.57858 -6.07765,-2.92887 -11.97655,-4.07749 -23.16678,-4.51095 -4.82856,-0.18703 -8.5288,-0.72662 -9.28743,-1.35429 -0.97306,-0.80513 -1.25819,-2.85305 -1.24844,-8.96723 0.007,-4.35812 0.30822,-8.38796 0.66948,-8.95518 0.52272,-0.82078 27.44415,-0.98882 131.86892,-0.82303 l 131.21211,0.20829 0.23179,10.08221 c 0.12747,5.54521 0.52759,10.0822 0.88915,10.0822 0.36155,0 4.47597,-2.44513 9.14314,-5.43361 16.96555,-10.86337 27.02016,-13.16208 37.61778,-8.60021 5.41389,2.33044 12.41673,9.36035 15.45916,15.51888 l 2.70294,5.47135 0.43603,16.48043 c 0.38336,14.48982 0.64821,16.94414 2.1926,20.31946 0.96612,2.11147 2.62741,4.30084 3.69172,4.86528 1.06434,0.56444 3.61149,2.43172 5.66035,4.14952 5.03518,4.22155 10.87313,5.50025 29.5167,6.46507 12.19891,0.6313 15.80698,1.1011 18.88619,2.45902 5.01135,2.21001 5.92709,2.14091 12.14568,-0.91626 5.91144,-2.9062 7.47955,-4.93783 8.87786,-11.50193 1.11783,-5.24754 4.78583,-12.8248 7.30721,-15.09515 1.3957,-1.25672 1.69019,-2.20055 1.31263,-4.20694 -0.6585,-3.49956 0.83407,-4.68549 4.55728,-3.62093 1.55084,0.44343 4.01673,0.80622 5.47973,0.80622 2.19386,0 3.67772,1.0146 8.46734,5.78964 5.3853,5.36889 5.80732,6.04587 5.80732,9.31554 0,1.93924 0.59173,5.53754 1.31494,7.99623 1.15309,3.92011 2.35881,5.48329 9.79636,12.70068 9.26554,8.9913 13.29043,15.42465 15.8506,25.33538 1.51465,5.86346 1.03576,22.23569 -0.76093,26.01362 -1.41642,2.97835 -5.63941,4.81476 -15.41746,6.70446 -12.75411,2.46485 -24.05143,2.21084 -34.78768,-0.78223 -10.61273,-2.95863 -17.18419,-4.18536 -22.42036,-4.18536 -3.86193,0 -4.06881,0.12007 -5.31781,3.08639 -2.41823,5.74316 -5.88468,21.14496 -6.79339,30.18376 -1.24105,12.34457 -1.17369,21.52637 0.46774,63.74445 1.56205,40.17735 1.80259,36.83736 -2.84536,39.50898 -0.85893,0.49373 -0.81071,2.55977 0.25318,10.84889 0.72278,5.63147 2.03866,13.38716 2.92416,17.23485 3.31774,14.41636 4.90081,25.17911 4.90081,33.31881 0,10.29157 1.47482,16.16833 5.75191,22.92002 6.22716,9.82999 6.45382,10.74818 7.55939,30.62298 0.553,9.94143 0.96315,24.00122 0.91142,31.24394 -0.0888,12.4395 0.0633,13.79285 2.74822,24.44347 1.56325,6.20119 2.84229,13.25823 2.84229,15.68234 0,3.53337 0.51562,5.21466 2.60013,8.47799 5.66053,8.86155 7.1278,15.46818 4.36792,19.66741 -2.4458,3.72143 -11.61417,5.85296 -19.76411,4.59495 z M 383.96778,752.84544 c 0.33154,-1.59084 1.36934,-4.83126 2.30623,-7.20093 0.93688,-2.36966 1.49051,-4.65188 1.23031,-5.07165 -0.26023,-0.41975 -2.04591,-0.76318 -3.96814,-0.76318 -3.44635,0 -3.50892,0.0518 -4.49182,3.71549 -1.59803,5.95668 -1.30226,9.96946 0.84535,11.46912 2.487,1.73668 3.36469,1.27421 4.07807,-2.14885 z m 194.5378,1.06607 c 0.83694,-0.5291 0.0957,-2.42365 -3.21548,-8.21776 -2.36678,-4.14158 -4.59007,-7.53015 -4.94065,-7.53015 -0.7073,0 -8.396,3.20895 -8.90531,3.71671 -0.53185,0.53023 5.55449,8.39876 8.23733,10.64934 2.51879,2.11297 6.64535,2.75919 8.82411,1.38186 z m -13.56722,-18.99892 3.77194,-1.61192 -0.47953,-7.65074 c -0.76918,-12.27188 2.33822,-26.55754 15.32913,-70.47301 6.65261,-22.48895 7.21925,-24.83111 6.00729,-24.83111 -0.35566,0 -5.09225,1.98969 -10.52575,4.42156 -5.4335,2.43186 -12.95247,5.48737 -16.70881,6.79005 -6.63115,2.29964 -6.8563,2.4642 -7.74345,5.66063 -0.62103,2.23746 -0.76069,10.27243 -0.436,25.08048 0.54222,24.72708 -0.26977,36.52519 -3.20994,46.64026 -1.10377,3.79728 -2.00686,7.47626 -2.00686,8.17554 0,0.69925 1.93182,3.30776 4.29295,5.79669 4.69912,4.95353 4.77214,4.96601 11.70903,2.00157 z m -173.85675,-2.71601 c 2.49362,-6.49235 10.81307,-22.37356 16.10112,-30.73579 10.05117,-15.89448 28.33431,-40.41597 39.19442,-52.56794 l 3.65205,-4.08646 -2.76242,-1.17464 c -1.51936,-0.64607 -6.93506,-3.18466 -12.03495,-5.64131 -10.63606,-5.1235 -9.61168,-5.2843 -16.83962,2.64333 -10.89969,11.95484 -14.08617,18.10652 -21.74223,41.97487 -6.2637,19.52756 -10.1851,28.51033 -15.16953,34.74908 -3.71025,4.64395 -3.9081,5.71953 -2.30887,12.55184 1.13468,4.84767 2.07199,5.53147 7.81708,5.70289 2.49982,0.0745 2.87144,-0.23556 4.09295,-3.41587 z M 523.2384,644.68586 c 12.72671,-1.8822 29.23052,-6.30724 41.51933,-11.13227 15.86833,-6.23048 34.27032,-15.92444 35.11454,-18.49796 0.16006,-0.48788 -2.53934,-5.30263 -5.99864,-10.69948 -14.08737,-21.97771 -29.03532,-41.71 -45.67003,-60.28749 -6.90146,-7.70746 -8.34477,-9.7757 -8.32814,-11.93403 0.0271,-3.50414 2.98948,-13.41017 8.04171,-26.89038 4.3309,-11.55557 10.8762,-29.15816 13.07252,-35.15661 0.69874,-1.90835 3.09905,-5.97029 5.33397,-9.02656 7.28337,-9.96001 7.92124,-15.0182 3.09466,-24.54038 -4.35571,-8.59327 -5.22713,-9.46493 -9.46202,-9.46493 -6.25444,0 -3.81822,-1.88346 5.13175,-3.96738 25.86459,-6.02237 33.97285,-8.12593 51.5434,-13.37212 21.23921,-6.34158 28.56603,-9.4841 48.70745,-20.89087 15.20473,-8.61098 38.45497,-22.97478 41.07109,-25.37341 2.09199,-1.91805 2.41899,-4.85394 0.72837,-6.53941 -0.621,-0.61912 -2.72504,-1.65077 -4.67564,-2.29258 -3.31253,-1.08987 -3.60571,-1.06188 -4.44335,0.4246 -2.97273,5.27538 -11.12959,9.14059 -42.43974,20.11043 -9.22703,3.23278 -20.38735,7.47393 -24.80075,9.42476 -11.5817,5.11942 -14.16521,5.85355 -35.19896,10.00222 -14.34065,2.82852 -22.22033,3.93339 -32.19642,4.51452 -7.26484,0.42319 -15.80928,1.29447 -18.98763,1.93619 -7.87904,1.59077 -8.15244,1.30098 -7.65829,-8.11749 0.38969,-7.42769 1.64421,-11.35182 4.34299,-13.58477 0.73377,-0.60713 4.71007,-1.5666 8.83625,-2.13219 4.12615,-0.56561 7.77204,-1.46381 8.10197,-1.99604 0.32995,-0.53222 0.43024,-3.06423 0.22288,-5.62669 -0.20736,-2.56249 -0.46291,-5.79247 -0.5679,-7.17778 -0.10492,-1.38531 -0.46559,-2.96189 -0.80137,-3.50352 -0.33936,-0.54744 0.21889,-2.14597 1.25704,-3.59948 1.49432,-2.0922 1.63201,-2.69293 0.68909,-3.00629 -2.63169,-0.87455 -9.88215,-8.62442 -9.88215,-10.56282 0,-3.4262 -2.26497,-7.54771 -6.77231,-12.32334 -5.53437,-5.8638 -8.15281,-6.9575 -16.62175,-6.94281 -7.27745,0.0126 -14.06706,1.62969 -18.70897,4.45585 -11.02228,6.71079 -15.38236,16.09148 -13.18268,28.36257 0.97935,5.46349 0.94318,5.80773 -0.86666,8.24824 -2.76993,3.73509 -2.68875,8.9117 0.19894,12.68657 3.18557,4.16425 8.25784,6.39904 14.52382,6.39904 h 5.10542 v 4.14255 c 0,4.95571 -2.34113,9.8927 -7.79148,16.43071 -6.01072,7.21022 -6.67195,9.0814 -6.54461,18.521 0.13548,10.04452 6.81219,32.27298 6.88877,34.156 0.72516,12.67707 3.41047,28.7272 -2.31138,36.63022 -0.55885,1.22282 -4.06643,5.05521 -7.79457,8.51644 -17.29126,16.05322 -21.73863,21.00704 -25.30226,28.18357 -2.26793,4.56726 -3.86668,9.29162 -4.70779,13.91166 -1.87446,10.296 -4.02996,16.63022 -9.10246,26.7487 -5.71566,11.40146 -15.86854,26.53411 -27.0576,40.32879 l -8.6785,10.69947 2.49729,2.15953 c 3.87385,3.34995 18.47112,10.95179 27.25968,14.19608 17.86343,6.59428 28.9428,8.52167 49.74295,8.65351 9.6425,0.0611 17.79372,-0.35606 23.52817,-1.20414 z m -84.96268,-58.57827 c 10.90412,-17.1483 15.2464,-26.64117 18.94054,-41.40669 4.46569,-17.84966 9.76716,-27.52628 19.54122,-35.66823 l 3.85029,-3.20735 -0.55584,-6.66907 c -1.5612,-18.73102 -7.62561,-31.89535 -16.36408,-35.5224 -3.04527,-1.26399 -7.21638,-1.50095 -32.22422,-1.83059 l -28.72617,-0.37868 0.28859,55.03706 c 0.25003,47.69274 0.46593,55.61519 1.61771,59.36951 3.03937,9.90694 8.27443,15.43088 17.80059,18.78288 8.78636,3.09169 8.28521,3.36098 15.83137,-8.50644 z m 17.34636,-145.95432 c 13.94984,-2.98259 21.86318,-17.34277 23.77191,-43.13834 l 0.60899,-8.23038 6.19163,-0.4115 c 3.40537,-0.22635 7.58472,-0.28003 9.28743,-0.11934 l 3.0958,0.29222 v 5.62623 c 0,3.09444 0.33888,5.83505 0.75309,6.09027 0.75675,0.46626 4.79455,-4.16078 6.55742,-7.51433 1.7506,-3.33026 1.19305,-4.23803 -2.97636,-4.84596 -13.93275,-2.03149 -21.57331,-14.33855 -15.41053,-24.82256 2.00543,-3.41156 2.07291,-3.87493 1.133,-7.78094 -1.42899,-5.93857 -0.59312,-13.77297 2.04248,-19.14354 3.73215,-7.60502 14.0025,-15.48305 22.55442,-17.30071 1.47566,-0.31363 2.68302,-0.91859 2.68302,-1.34435 0,-1.6652 -12.2058,-12.85986 -16.2499,-14.90371 -9.11597,-4.60719 -12.67862,-4.95633 -46.55746,-4.56279 -33.97619,0.39464 -37.15809,0.79422 -44.06776,5.53369 -6.53702,4.48393 -6.22519,0.8124 -6.22519,73.28996 v 64.18018 h 24.3131 c 14.3805,0 26.02147,-0.36526 28.49491,-0.8941 z m 93.72709,-46.4104 c 5.06798,-6.5788 7.29809,-8.49402 13.33881,-11.45529 14.94552,-7.32659 21.74705,-12.15357 21.74705,-15.43368 0,-1.87843 0.14143,-1.88185 -4.9533,0.12018 -4.76305,1.87171 -9.2977,2.13468 -10.56471,0.61268 -0.47315,-0.56837 -1.10694,-2.01324 -1.40843,-3.21081 -0.66776,-2.65243 -3.50599,-5.83795 -4.81417,-5.40323 -1.04231,0.34638 -1.17439,9.87443 -0.19829,14.30506 0.44131,2.00304 0.15192,3.03035 -1.3387,4.75227 -1.5764,1.82107 -2.96075,2.33401 -8.09329,2.99888 -3.4054,0.44113 -7.0468,1.16374 -8.09201,1.60581 -2.44864,1.03564 -4.29124,5.47849 -4.29124,10.34694 v 3.83847 l 3.50857,-0.467 c 2.45945,-0.32734 4.00231,-1.10787 5.15971,-2.61028 z m 169.49078,-20.08186 c 0.20867,-3.647 -0.0681,-4.76487 -1.57528,-6.36437 -3.06087,-3.24823 -4.30917,-3.12701 -10.22015,0.99248 -4.93357,3.43832 -5.38237,3.97499 -4.25997,5.09398 1.58281,1.578 11.94925,5.16903 14.15119,4.90213 1.38438,-0.16782 1.69199,-0.91485 1.90421,-4.62422 z M 555.54078,338.47156 c 0,-3.38388 -0.53756,-5.45182 -2.11461,-8.13464 -1.59037,-2.70552 -2.2555,-5.2923 -2.68303,-10.43452 -0.31263,-3.76048 -0.89495,-6.83722 -1.29404,-6.83722 -0.39909,0 -0.65675,3.99953 -0.57256,8.88783 0.11568,6.71498 0.54531,9.80013 1.75755,12.61953 0.88248,2.05245 1.60447,4.04729 1.60447,4.43295 0,0.38569 0.37083,1.67354 0.82402,2.86192 1.26371,3.31369 2.4782,1.64948 2.4782,-3.39585 z"
       style="fill:#000000;stroke-width:0.618214"
       id="path1"
       sodipodi:nodetypes="sssssssssssssssssssssssscssssssssscssssssssssssssscsssssssssssscssssscssssscsscssscsssssssscssssscsssssssssssssssssssssssssssssssssssssssssssssssssscsssssssssssssscsssssssssssssssssssssssssssssssssssssssssssssssscsssssssssscssssssscssscsssssscsscssssssssssssscsssssssssssssscsssssssssssssssss"
       inkscape:label="path1" />
  </g>
  <ellipse
     style="display:none;fill:#000000;fill-opacity:0;stroke:#000000;stroke-width:1.014;stroke-dasharray:none"
     id="path2"
     ry="536.69769"
     rx="539.98071"
     cy="543.34491"
     cx="543.34491" />
</svg>
